<?xml version="1.0" encoding="UTF-8"?>
<svg xmlns="http://www.w3.org/2000/svg" xmlns:xlink="http://www.w3.org/1999/xlink" width="2700" height="1800" viewBox="0 0 2700 1800">
<defs>
<radialGradient id="radial-pattern-0" gradientUnits="userSpaceOnUse" cx="0" cy="0" fx="0" fy="0" r="1982.4" gradientTransform="matrix(1, 0, 0, 1, 1350, 900)">
<stop offset="0" stop-color="rgb(99.92981%, 99.92981%, 99.92981%)" stop-opacity="1"/>
<stop offset="0.25" stop-color="rgb(99.769592%, 99.769592%, 99.769592%)" stop-opacity="1"/>
<stop offset="0.34375" stop-color="rgb(99.562073%, 99.562073%, 99.562073%)" stop-opacity="1"/>
<stop offset="0.425781" stop-color="rgb(99.308777%, 99.308777%, 99.308777%)" stop-opacity="1"/>
<stop offset="0.496094" stop-color="rgb(99.024963%, 99.024963%, 99.024963%)" stop-opacity="1"/>
<stop offset="0.558594" stop-color="rgb(98.722839%, 98.722839%, 98.722839%)" stop-opacity="1"/>
<stop offset="0.613281" stop-color="rgb(98.417664%, 98.417664%, 98.417664%)" stop-opacity="1"/>
<stop offset="0.660156" stop-color="rgb(98.126221%, 98.126221%, 98.126221%)" stop-opacity="1"/>
<stop offset="0.699219" stop-color="rgb(97.850037%, 97.850037%, 97.850037%)" stop-opacity="1"/>
<stop offset="0.734375" stop-color="rgb(97.583008%, 97.583008%, 97.583008%)" stop-opacity="1"/>
<stop offset="0.765625" stop-color="rgb(97.331238%, 97.331238%, 97.331238%)" stop-opacity="1"/>
<stop offset="0.792969" stop-color="rgb(97.099304%, 97.099304%, 97.099304%)" stop-opacity="1"/>
<stop offset="0.816406" stop-color="rgb(96.893311%, 96.893311%, 96.893311%)" stop-opacity="1"/>
<stop offset="0.835938" stop-color="rgb(96.699524%, 96.699524%, 96.699524%)" stop-opacity="1"/>
<stop offset="0.855469" stop-color="rgb(96.414185%, 96.414185%, 96.414185%)" stop-opacity="1"/>
<stop offset="0.890625" stop-color="rgb(96.072388%, 96.072388%, 96.072388%)" stop-opacity="1"/>
<stop offset="0.917969" stop-color="rgb(95.802307%, 95.802307%, 95.802307%)" stop-opacity="1"/>
<stop offset="0.9375" stop-color="rgb(95.495605%, 95.495605%, 95.495605%)" stop-opacity="1"/>
<stop offset="0.96875" stop-color="rgb(95.204163%, 95.204163%, 95.204163%)" stop-opacity="1"/>
<stop offset="0.984375" stop-color="rgb(95.002747%, 95.002747%, 95.002747%)" stop-opacity="1"/>
<stop offset="1" stop-color="rgb(94.900513%, 94.900513%, 94.900513%)" stop-opacity="1"/>
</radialGradient>
</defs>
<rect x="-270" y="-180" width="3240" height="2160" fill="url(#radial-pattern-0)"/>
<path fill-rule="nonzero" fill="rgb(0%, 0%, 0%)" fill-opacity="1" d="M 840.90625 885.957031 C 821.636719 841.96875 803.949219 798.261719 796.550781 752.480469 C 788.765625 706.699219 787.851562 659.410156 796.195312 613.980469 C 810.78125 522.890625 870.394531 439.921875 956.648438 406.488281 C 998.898438 389.378906 1046.300781 385.078125 1089.859375 396.851562 C 1133.03125 409.96875 1173.289062 435.378906 1199.539062 473.519531 C 1253.578125 549.53125 1265.851562 650.421875 1263.910156 745.609375 C 1261.441406 841.9375 1243.378906 938.347656 1215.800781 1031.171875 C 1193.238281 1105.25 1163.320312 1177.558594 1123.71875 1244.128906 C 1001.75 1152.691406 904.496094 1025.851562 840.90625 885.957031 Z M 2100.328125 888.3125 C 2088.539062 781.628906 2041.808594 682.589844 1978.628906 600.929688 C 1936.488281 546.421875 1887.789062 498.429688 1835.738281 455.078125 L 2033.300781 475.070312 L 2042.570312 383.328125 L 1645.28125 343.128906 L 1645.28125 710.039062 L 1737.46875 710.039062 L 1737.46875 493.601562 C 1802.101562 540.261719 1861.488281 593.25 1910.429688 654.019531 C 1967.960938 725.359375 2008.511719 809.214844 2020.160156 897.242188 C 2030.929688 985.226562 2009.121094 1075.640625 1959.449219 1150.210938 C 1910.5 1225.449219 1835.691406 1283.730469 1751.621094 1320.78125 C 1709.71875 1339.878906 1665.058594 1353.398438 1619.371094 1361.851562 C 1573.78125 1370.890625 1526.980469 1374.878906 1480.140625 1373.890625 C 1387.011719 1374.351562 1296.351562 1347.851562 1213.800781 1303.210938 C 1185.988281 1287.96875 1159.601562 1270.339844 1133.890625 1251.699219 C 1175.800781 1184.53125 1207.800781 1111.429688 1232.300781 1036.328125 C 1262.140625 942.554688 1282.410156 845.460938 1286.941406 746.371094 C 1290.460938 648.601562 1281.53125 543.539062 1222.929688 456.699219 C 1194.179688 413.25 1148.289062 382.230469 1098.519531 366.371094 C 1047.769531 351.53125 992.742188 355.691406 944.199219 374.238281 C 845.171875 409.929688 774.484375 505.179688 756.589844 606.359375 C 746.308594 656.898438 746.328125 708.898438 753.910156 759.46875 C 761.265625 810.679688 779.648438 858.703125 798.664062 904.402344 C 863.378906 1053.898438 963.28125 1190.28125 1093.910156 1291 C 1093.410156 1291.710938 1093.019531 1292.488281 1092.511719 1293.191406 C 1064.488281 1332.609375 1031.429688 1368.738281 992.398438 1397.199219 C 953.765625 1426.019531 908.0625 1445.980469 859.777344 1450.210938 C 811.574219 1455.601562 762.628906 1444.21875 718.582031 1423.949219 C 674.265625 1403.699219 634.1875 1374.960938 597.316406 1342.980469 C 633.554688 1375.671875 673.113281 1405.269531 717.367188 1426.570312 C 761.335938 1447.851562 810.800781 1460.480469 860.277344 1455.949219 C 909.816406 1452.601562 957.273438 1432.980469 997.421875 1404.238281 C 1038 1375.839844 1072.488281 1339.570312 1101.808594 1300.011719 C 1102.261719 1299.390625 1102.621094 1298.71875 1103.070312 1298.101562 C 1129.589844 1317.96875 1156.890625 1336.910156 1185.890625 1353.621094 C 1273.949219 1403.808594 1375.75 1435.769531 1478.71875 1437.25 C 1529.53125 1439.289062 1580.761719 1435.988281 1631.199219 1427.039062 C 1681.710938 1418.699219 1731.609375 1404.699219 1779.078125 1384.238281 C 1874.140625 1344.488281 1961.648438 1279.988281 2021.539062 1192.101562 C 2082.199219 1105.269531 2111.539062 994.992188 2100.328125 888.3125 "/>
</svg>
